<svg id="Elevate_Primary_Logo" data-name="Elevate Primary Logo" xmlns="http://www.w3.org/2000/svg" xmlns:xlink="http://www.w3.org/1999/xlink" width="147.53" height="63" viewBox="0 0 147.53 63">
  <defs>
    <clipPath id="clip-path">
      <rect id="Rectangle_266" data-name="Rectangle 266" width="147.53" height="63" fill="none"/>
    </clipPath>
  </defs>
  <path id="Path_604" data-name="Path 604" d="M544,177.005l2.793-5.538,6.066,6.878-6.312-14.314-5.684,13.033,3.711-4.146L544,176.7Z" transform="translate(-458.399 -139.023)" fill="#a0a0a0"/>
  <path id="Path_605" data-name="Path 605" d="M0,164.031v23.827H17.146v-3.784H4.022V177.7H15.441v-3.579H4.022v-6.306H16.737v-3.784Z" transform="translate(0 -139.023)" fill="#033277"/>
  <path id="Path_606" data-name="Path 606" d="M146.222,187.858V164.031h4.022v20.01h10.874v3.817Z" transform="translate(-123.929 -139.023)" fill="#033277"/>
  <path id="Path_607" data-name="Path 607" d="M289.5,164.031v3.784H276.79v6.306H288.21V177.7H276.79v6.374h13.124v3.784H272.768V164.031Z" transform="translate(-231.182 -139.023)" fill="#033277"/>
  <path id="Path_608" data-name="Path 608" d="M716.649,167.712v20.146h-4.023V167.712H705.4v-3.681h18.476v3.681Z" transform="translate(-597.854 -139.023)" fill="#033277"/>
  <path id="Path_609" data-name="Path 609" d="M855.2,164.031v23.827h17.147v-3.784H859.222V177.7h11.419v-3.579H859.222v-6.306h12.715v-3.784Z" transform="translate(-724.816 -139.023)" fill="#033277"/>
  <g id="Group_216" data-name="Group 216">
    <g id="Group_215" data-name="Group 215" clip-path="url(#clip-path)">
      <path id="Path_610" data-name="Path 610" d="M435.687,1.981c-2.935-2.592-7.624-2.305-13.939.849-5.153,2.578-8.74,1.1-12.894-.608C405.387.8,401.471-.816,396.733.469a7.086,7.086,0,0,0-4.586,3.808c-2.066,4.159-.706,13.464.669,18.789h4.176c-1.042-3.752-2.955-13.475-1.212-16.984a3.011,3.011,0,0,1,2.013-1.7c3.416-.924,6.244.243,9.519,1.589,4.432,1.824,9.448,3.89,16.251.486,4.618-2.311,7.882-2.81,9.44-1.438,1.609,1.419,3.473,6.467-2.08,24.305l2.454,5.643c6.108-18.175,6.861-28.969,2.31-32.987" transform="translate(-331.464 0)" fill="#a0a0a0"/>
      <path id="Path_611" data-name="Path 611" d="M6.633,356.777a4.071,4.071,0,0,1,1.243,3.161,4.266,4.266,0,0,1-1.211,3.2,5.116,5.116,0,0,1-3.694,1.18H0v-8.681H3.068a5.094,5.094,0,0,1,3.565,1.136m-1.422,5.16a2.544,2.544,0,0,0,.715-1.95,2.612,2.612,0,0,0-.715-1.969,3.057,3.057,0,0,0-2.192-.689H1.938v5.28H3.169a2.875,2.875,0,0,0,2.042-.672" transform="translate(0 -301.42)" fill="#a0a0a0"/>
      <path id="Path_612" data-name="Path 612" d="M81.126,355.641v1.725H76.8v1.788h3.887v1.652H76.8v1.8h4.459v1.713h-6.4v-8.681Z" transform="translate(-63.452 -301.42)" fill="#a0a0a0"/>
      <path id="Path_613" data-name="Path 613" d="M146.428,355.641h1.938v8.681h-1.938l-4.135-5.439v5.439h-1.938v-8.681h1.814l4.26,5.589Z" transform="translate(-118.956 -301.42)" fill="#a0a0a0"/>
      <path id="Path_614" data-name="Path 614" d="M218.8,357.317v7h-1.938v-7h-2.458v-1.676h6.855v1.676Z" transform="translate(-181.719 -301.42)" fill="#a0a0a0"/>
      <path id="Path_615" data-name="Path 615" d="M276.619,364.321l-.807-1.875h-3.639l-.807,1.875H269.3l3.752-8.681h1.875l3.751,8.681Zm-2.621-6.1-1.093,2.521h2.174Z" transform="translate(-228.245 -301.419)" fill="#a0a0a0"/>
      <path id="Path_616" data-name="Path 616" d="M349.621,364.321V355.64h1.938v6.954h3.7v1.727Z" transform="translate(-296.318 -301.419)" fill="#a0a0a0"/>
      <path id="Path_617" data-name="Path 617" d="M447.815,356.417a2.958,2.958,0,0,1,.912,2.385,2.822,2.822,0,0,1-.937,2.353,4.561,4.561,0,0,1-2.861.744h-1.156v2.422h-1.938v-8.681H444.9a4.454,4.454,0,0,1,2.913.776m-1.422,3.415a1.665,1.665,0,0,0,.347-1.142,1.206,1.206,0,0,0-.453-1.067,2.476,2.476,0,0,0-1.41-.317h-1.1v2.918h1.3a1.728,1.728,0,0,0,1.317-.392" transform="translate(-374.472 -301.42)" fill="#a0a0a0"/>
      <path id="Path_618" data-name="Path 618" d="M505.765,364.321l-.807-1.875h-3.639l-.807,1.875h-2.062l3.752-8.681h1.875l3.751,8.681Zm-2.621-6.1-1.093,2.521h2.174Z" transform="translate(-422.456 -301.419)" fill="#a0a0a0"/>
      <path id="Path_619" data-name="Path 619" d="M585.808,358.521a2.556,2.556,0,0,1-1.652,2.694l2.2,3.106h-2.385l-1.926-2.769H580.7v2.769h-1.938V355.64h3.293a4.707,4.707,0,0,1,2.887.683,2.634,2.634,0,0,1,.862,2.2m-2.334,1.03a1.314,1.314,0,0,0,.359-1.024,1.1,1.1,0,0,0-.372-.963,2.391,2.391,0,0,0-1.3-.26H580.7v2.57h1.416a2.079,2.079,0,0,0,1.355-.323" transform="translate(-490.527 -301.419)" fill="#a0a0a0"/>
      <path id="Path_620" data-name="Path 620" d="M648.754,357.317v7h-1.938v-7h-2.458v-1.676h6.855v1.676Z" transform="translate(-546.12 -301.42)" fill="#a0a0a0"/>
      <path id="Path_621" data-name="Path 621" d="M716.888,355.641h1.938v8.681h-1.938l-4.136-5.439v5.439h-1.938v-8.681h1.814l4.26,5.589Z" transform="translate(-602.444 -301.42)" fill="#a0a0a0"/>
      <path id="Path_622" data-name="Path 622" d="M795.842,355.641v1.725H791.52v1.788h3.887v1.652H791.52v1.8h4.459v1.713h-6.4v-8.681Z" transform="translate(-669.202 -301.42)" fill="#a0a0a0"/>
      <path id="Path_623" data-name="Path 623" d="M862.126,358.521a2.556,2.556,0,0,1-1.652,2.694l2.2,3.106h-2.385l-1.926-2.769h-1.341v2.769h-1.938V355.64h3.293a4.707,4.707,0,0,1,2.887.683,2.634,2.634,0,0,1,.862,2.2m-2.333,1.03a1.314,1.314,0,0,0,.358-1.024,1.1,1.1,0,0,0-.372-.963,2.391,2.391,0,0,0-1.3-.26h-1.453v2.57h1.416a2.079,2.079,0,0,0,1.355-.323" transform="translate(-724.718 -301.419)" fill="#a0a0a0"/>
      <path id="Path_624" data-name="Path 624" d="M925.109,356.269a.747.747,0,0,0-.278.609.682.682,0,0,0,.341.6,6.25,6.25,0,0,0,1.578.528,4.437,4.437,0,0,1,1.918.914,2.257,2.257,0,0,1,.683,1.776,2.348,2.348,0,0,1-.874,1.894,3.505,3.505,0,0,1-2.3.725,5.333,5.333,0,0,1-3.714-1.526l1.156-1.416a4.109,4.109,0,0,0,2.6,1.229,1.359,1.359,0,0,0,.837-.23.734.734,0,0,0,.305-.62.726.726,0,0,0-.323-.62,4.217,4.217,0,0,0-1.28-.467,5.532,5.532,0,0,1-2.215-.937,2.21,2.21,0,0,1-.7-1.814,2.252,2.252,0,0,1,.888-1.906,3.576,3.576,0,0,1,2.217-.669,5.333,5.333,0,0,1,1.739.3,4.65,4.65,0,0,1,1.514.845l-.981,1.416a3.826,3.826,0,0,0-2.336-.857,1.168,1.168,0,0,0-.764.23" transform="translate(-781.82 -300.315)" fill="#a0a0a0"/>
      <path id="Path_625" data-name="Path 625" d="M439.441,108.883h4.295L431.077,83.145l-14.351,30.472-7.34-18.14h-4.5l9.477,23.827h4.563l12.191-27.189Z" transform="translate(-343.158 -70.469)" fill="#033277"/>
    </g>
  </g>
</svg>
