<svg xmlns="http://www.w3.org/2000/svg" width="283.08" height="131.631" viewBox="0 0 283.08 131.631">
  <g id="plus_pattern" data-name="plus pattern" transform="translate(0 0)" opacity="0.45">
    <path id="Path_444" data-name="Path 444" d="M295.835,0V7.835H288V10.97h7.835V18.8h3.134V10.97H306.8V7.835h-7.835V0Z" transform="translate(-175.174)" fill="#6aa29f"/>
    <path id="Path_445" data-name="Path 445" d="M306.8,106.969v-3.134h-7.835V96h-3.134v7.835H288v3.134h7.835V114.8h3.134v-7.835Z" transform="translate(-175.174 -58.391)" fill="#6aa29f"/>
    <path id="Path_446" data-name="Path 446" d="M306.8,202.969v-3.134h-7.835V192h-3.134v7.835H288v3.134h7.835V210.8h3.134v-7.835Z" transform="translate(-175.174 -116.782)" fill="#6aa29f"/>
    <path id="Path_447" data-name="Path 447" d="M295.835,288v7.835H288v3.134h7.835V306.8h3.134V298.97H306.8v-3.134h-7.835V288Z" transform="translate(-175.174 -175.174)" fill="#6aa29f"/>
    <path id="Path_448" data-name="Path 448" d="M199.835,0V7.835H192V10.97h7.836V18.8h3.134V10.97H210.8V7.835h-7.836V0Z" transform="translate(-116.782)" fill="#6aa29f"/>
    <path id="Path_449" data-name="Path 449" d="M210.8,106.969v-3.134h-7.835V96h-3.134v7.835H192v3.134h7.835V114.8h3.134v-7.835Z" transform="translate(-116.782 -58.391)" fill="#6aa29f"/>
    <path id="Path_450" data-name="Path 450" d="M210.8,202.969v-3.134h-7.835V192h-3.134v7.835H192v3.134h7.835V210.8h3.134v-7.835Z" transform="translate(-116.782 -116.782)" fill="#6aa29f"/>
    <path id="Path_451" data-name="Path 451" d="M199.835,288v7.835H192v3.134h7.836V306.8h3.134V298.97H210.8v-3.134h-7.836V288Z" transform="translate(-116.782 -175.174)" fill="#6aa29f"/>
    <path id="Path_452" data-name="Path 452" d="M103.835,0V7.835H96V10.97h7.835V18.8h3.134V10.97H114.8V7.835h-7.835V0Z" transform="translate(-58.391)" fill="#6aa29f"/>
    <path id="Path_453" data-name="Path 453" d="M114.8,106.969v-3.134h-7.835V96h-3.134v7.835H96v3.134h7.835V114.8h3.134v-7.835Z" transform="translate(-58.391 -58.391)" fill="#6aa29f"/>
    <path id="Path_454" data-name="Path 454" d="M114.8,202.969v-3.134h-7.835V192h-3.134v7.835H96v3.134h7.835V210.8h3.134v-7.835Z" transform="translate(-58.391 -116.782)" fill="#6aa29f"/>
    <path id="Path_455" data-name="Path 455" d="M103.835,288v7.835H96v3.134h7.835V306.8h3.134V298.97H114.8v-3.134h-7.835V288Z" transform="translate(-58.391 -175.174)" fill="#6aa29f"/>
    <path id="Path_456" data-name="Path 456" d="M7.835,0V7.835H0V10.97H7.835V18.8h3.134V10.97H18.8V7.835H10.969V0Z" fill="#6aa29f"/>
    <path id="Path_457" data-name="Path 457" d="M7.835,96v7.836H0v3.134H7.835V114.8h3.134v-7.836H18.8v-3.134H10.969V96Z" transform="translate(0 -58.391)" fill="#6aa29f"/>
    <path id="Path_458" data-name="Path 458" d="M7.835,192v7.835H0v3.134H7.835V210.8h3.134v-7.835H18.8v-3.134H10.969V192Z" transform="translate(0 -116.782)" fill="#6aa29f"/>
    <path id="Path_459" data-name="Path 459" d="M7.835,288v7.835H0v3.134H7.835V306.8h3.134V298.97H18.8v-3.134H10.969V288Z" transform="translate(0 -175.174)" fill="#6aa29f"/>
    <path id="Path_460" data-name="Path 460" d="M682.423,0V7.835h-7.836V10.97h7.836V18.8h3.134V10.97h7.836V7.835h-7.836V0Z" transform="translate(-410.312)" fill="#6aa29f"/>
    <path id="Path_461" data-name="Path 461" d="M682.423,96v7.836h-7.836v3.134h7.836V114.8h3.134v-7.836h7.836v-3.134h-7.836V96Z" transform="translate(-410.312 -58.391)" fill="#6aa29f"/>
    <path id="Path_462" data-name="Path 462" d="M682.423,192v7.835h-7.836v3.134h7.836V210.8h3.134v-7.835h7.836v-3.134h-7.836V192Z" transform="translate(-410.312 -116.782)" fill="#6aa29f"/>
    <path id="Path_463" data-name="Path 463" d="M682.423,288v7.835h-7.836v3.134h7.836V306.8h3.134V298.97h7.836v-3.134h-7.836V288Z" transform="translate(-410.312 -175.174)" fill="#6aa29f"/>
    <path id="Path_464" data-name="Path 464" d="M586.423,0V7.835h-7.835V10.97h7.835V18.8h3.134V10.97h7.835V7.835h-7.835V0Z" transform="translate(-351.921)" fill="#6aa29f"/>
    <path id="Path_465" data-name="Path 465" d="M597.392,106.969v-3.134h-7.835V96h-3.134v7.835h-7.835v3.134h7.835V114.8h3.134v-7.835Z" transform="translate(-351.921 -58.391)" fill="#6aa29f"/>
    <path id="Path_466" data-name="Path 466" d="M597.392,202.969v-3.134h-7.835V192h-3.134v7.835h-7.835v3.134h7.835V210.8h3.134v-7.835Z" transform="translate(-351.921 -116.782)" fill="#6aa29f"/>
    <path id="Path_467" data-name="Path 467" d="M586.423,288v7.835h-7.835v3.134h7.835V306.8h3.134V298.97h7.835v-3.134h-7.835V288Z" transform="translate(-351.921 -175.174)" fill="#6aa29f"/>
    <path id="Path_468" data-name="Path 468" d="M490.423,0V7.835h-7.835V10.97h7.835V18.8h3.134V10.97h7.835V7.835h-7.835V0Z" transform="translate(-293.53)" fill="#6aa29f"/>
    <path id="Path_469" data-name="Path 469" d="M501.393,106.969v-3.134h-7.835V96h-3.134v7.835h-7.835v3.134h7.835V114.8h3.134v-7.835Z" transform="translate(-293.53 -58.391)" fill="#6aa29f"/>
    <path id="Path_470" data-name="Path 470" d="M501.393,202.969v-3.134h-7.835V192h-3.134v7.835h-7.835v3.134h7.835V210.8h3.134v-7.835Z" transform="translate(-293.53 -116.782)" fill="#6aa29f"/>
    <path id="Path_471" data-name="Path 471" d="M490.423,288v7.835h-7.835v3.134h7.835V306.8h3.134V298.97h7.835v-3.134h-7.835V288Z" transform="translate(-293.53 -175.174)" fill="#6aa29f"/>
    <path id="Path_472" data-name="Path 472" d="M394.423,0V7.835h-7.836V10.97h7.836V18.8h3.134V10.97h7.836V7.835h-7.836V0Z" transform="translate(-235.139)" fill="#6aa29f"/>
    <path id="Path_473" data-name="Path 473" d="M405.393,106.969v-3.134h-7.835V96h-3.134v7.835h-7.835v3.134h7.835V114.8h3.134v-7.835Z" transform="translate(-235.139 -58.391)" fill="#6aa29f"/>
    <path id="Path_474" data-name="Path 474" d="M405.393,202.969v-3.134h-7.835V192h-3.134v7.835h-7.835v3.134h7.835V210.8h3.134v-7.835Z" transform="translate(-235.139 -116.782)" fill="#6aa29f"/>
    <path id="Path_475" data-name="Path 475" d="M394.423,288v7.835h-7.836v3.134h7.836V306.8h3.134V298.97h7.836v-3.134h-7.836V288Z" transform="translate(-235.139 -175.174)" fill="#6aa29f"/>
  </g>
</svg>
