<?xml version="1.0" encoding="UTF-8"?><svg id="Layer_2" xmlns="http://www.w3.org/2000/svg" viewBox="0 0 311.71 320.32"><defs><style>.cls-1{fill:#fff;}.cls-2{fill:#1da19b;}</style></defs><g id="Layer_1-2"><polygon class="cls-2" points="170.35 249.13 188.66 212.8 228.45 257.92 187.05 164.03 149.77 249.52 174.11 222.33 170.35 247.14 170.35 249.13"/><path class="cls-2" d="M292.53,13c-19.25-17-50.01-15.12-91.43,5.57-33.8,16.91-57.33,7.23-84.57-3.98C93.78,5.23,68.1-5.35,37.02,3.08,23.67,6.69,13.27,15.33,6.94,28.06c-13.55,27.28-4.63,88.31,4.39,123.24h27.39c-6.84-24.61-19.38-88.38-7.95-111.4,2.96-5.97,7.16-9.51,13.2-11.14,22.41-6.06,40.96,1.59,62.44,10.42,29.07,11.96,61.97,25.51,106.59,3.19,30.29-15.16,51.7-18.43,61.92-9.43,10.56,9.31,22.78,42.42-13.65,159.42l16.1,37.01c40.06-119.21,45-190.01,15.15-216.37Z"/><polygon class="cls-1" points="240.44 251.96 268.61 251.96 185.58 83.14 91.45 283.01 43.31 164.03 13.8 164.03 75.96 320.32 105.89 320.32 185.86 141.98 240.44 251.96"/></g></svg>