<?xml version="1.0" encoding="UTF-8"?><svg id="Layer_2" xmlns="http://www.w3.org/2000/svg" viewBox="0 0 123.1 121.68"><defs><style>.cls-1{fill:#fff;}</style></defs><g id="Layer_1-2"><g><path class="cls-1" d="M121.6,121.68h-24.8c-.8,0-1.5-.7-1.5-1.5s.7-1.5,1.5-1.5h23.3v-13.8h-14.6c-.8,0-1.5-.7-1.5-1.5s.7-1.5,1.5-1.5h16.1c.8,0,1.5,.7,1.5,1.5v16.8c0,.8-.6,1.5-1.5,1.5Z"/><path class="cls-1" d="M42.6,121.68H1.5c-.8,0-1.5-.7-1.5-1.5v-16.8c0-.8,.7-1.5,1.5-1.5H33.9c.8,0,1.5,.7,1.5,1.5s-.7,1.5-1.5,1.5H3v13.8H42.6c.8,0,1.5,.7,1.5,1.5,0,.8-.7,1.5-1.5,1.5Z"/><path class="cls-1" d="M33.9,104.88H9.1c-.8,0-1.5-.7-1.5-1.5v-16.9c0-.8,.7-1.5,1.5-1.5h25.1c.8,0,1.5,.7,1.5,1.5s-.7,1.5-1.5,1.5H10.6v13.8h23.3c.8,0,1.5,.7,1.5,1.5,0,.9-.7,1.6-1.5,1.6Z"/><path class="cls-1" d="M113.5,104.88h-8c-.8,0-1.5-.7-1.5-1.5s.7-1.5,1.5-1.5h6.5v-13.9h-6.8c-.8,0-1.5-.7-1.5-1.5s.7-1.5,1.5-1.5h8.3c.8,0,1.5,.7,1.5,1.5v16.8c0,.9-.7,1.6-1.5,1.6Z"/><path class="cls-1" d="M121.6,87.98h-16.4c-.8,0-1.5-.7-1.5-1.5s.7-1.5,1.5-1.5h14.9v-13.8h-24.4c-.8,0-1.5-.7-1.5-1.5s.7-1.5,1.5-1.5h25.9c.8,0,1.5,.7,1.5,1.5v16.8c0,.9-.6,1.5-1.5,1.5Z"/><path class="cls-1" d="M117.9,71.18h-22.2c-.8,0-1.5-.7-1.5-1.5s.7-1.5,1.5-1.5h20.7v-13.8h-46.4v4.5c0,.8-.7,1.5-1.5,1.5s-1.5-.7-1.5-1.5v-6c0-.8,.7-1.5,1.5-1.5h49.4c.8,0,1.5,.7,1.5,1.5v16.8c0,.8-.7,1.5-1.5,1.5Z"/><path class="cls-1" d="M69.7,121.68c-14.4,0-26.2-11.7-26.2-26.2s11.7-26.2,26.2-26.2c14.4,.1,26.2,11.8,26.2,26.2s-11.8,26.2-26.2,26.2Zm0-49.3c-12.8,0-23.2,10.4-23.2,23.2s10.4,23.2,23.2,23.2,23.2-10.4,23.2-23.2-10.4-23.2-23.2-23.2Z"/><path class="cls-1" d="M69.7,108.18c-2.7,0-5.2-1.5-6.5-3.8-.4-.7-.1-1.6,.6-2s1.6-.1,2,.6c.8,1.4,2.3,2.3,3.9,2.3,2.4,0,4.4-2,4.4-4.4s-2-4.4-4.4-4.4c-4.1,0-7.4-3.3-7.4-7.4s3.3-7.4,7.4-7.4c2.7,0,5.2,1.5,6.5,3.8,.4,.7,.1,1.6-.6,2s-1.6,.1-2-.6c-.8-1.4-2.3-2.3-3.9-2.3-2.4,0-4.4,2-4.4,4.4s2,4.4,4.4,4.4c4.1,0,7.4,3.3,7.4,7.4,0,4.1-3.3,7.4-7.4,7.4Z"/><g><path class="cls-1" d="M3.9,42.08c-.3,0-.6,0-.9-.1-1-.2-1.9-.9-2.4-1.7-.5-.9-.7-1.9-.5-2.9s.9-1.9,1.7-2.4c.9-.5,1.9-.7,2.9-.5,1,.2,1.9,.9,2.4,1.7,.5,.9,.7,1.9,.5,2.9-.3,1.8-1.9,3-3.7,3Zm0-4.8c-.2,0-.3,0-.5,.1s-.3,.3-.4,.6c-.1,.2,0,.5,.1,.7s.3,.3,.6,.4c.5,.1,1-.2,1.1-.7h0c.1-.2,0-.5-.1-.7s-.3-.3-.6-.4h-.2Z"/><path class="cls-1" d="M78,34.28c-.3,0-.6,0-.9-.1-1-.2-1.9-.9-2.4-1.7-.5-.9-.7-1.9-.5-2.9,.5-2.1,2.6-3.4,4.7-2.9s3.4,2.6,2.9,4.7h0c-.4,1.7-2,2.9-3.8,2.9Zm0-4.8c-.2,0-.3,0-.5,.1s-.3,.3-.4,.6c-.1,.2,0,.5,.1,.7s.3,.3,.6,.4c.5,.1,1-.2,1.1-.7s-.2-1-.7-1.1h-.2Z"/><path class="cls-1" d="M51.6,18.28c-.3,0-.6,0-.9-.1-1-.2-1.9-.9-2.4-1.7-.5-.9-.7-1.9-.5-2.9,.5-2.1,2.6-3.4,4.7-2.9,1,.2,1.9,.9,2.4,1.7,.5,.9,.7,1.9,.5,2.9h0c-.2,1-.9,1.9-1.7,2.4-.7,.4-1.4,.6-2.1,.6Zm-.1-4.8c-.4,0-.8,.3-.9,.7-.1,.2,0,.5,.1,.7s.3,.3,.6,.4c.2,.1,.5,0,.7-.1s.3-.3,.4-.6h0c.1-.2,0-.5-.1-.7s-.3-.3-.6-.4h-.2Z"/><path class="cls-1" d="M106.4,7.68c-.3,0-.6,0-.9-.1-1-.2-1.9-.9-2.4-1.7-.5-.9-.7-1.9-.5-2.9s.9-1.9,1.7-2.4c.9-.5,1.9-.7,2.9-.5s1.9,.9,2.4,1.7c.5,.9,.7,1.9,.5,2.9h0c-.3,1.8-1.9,3-3.7,3Zm0-4.8c-.2,0-.3,0-.5,.1s-.3,.3-.4,.6c-.1,.2,0,.5,.1,.7s.3,.3,.6,.4c.5,.1,1-.2,1.1-.7,.1-.2,0-.5-.1-.7s-.3-.3-.6-.4h-.2Z"/><path class="cls-1" d="M25.3,56.68c-.3,0-.6,0-.9-.1-1-.2-1.9-.9-2.4-1.7-.5-.9-.7-1.9-.5-2.9s.9-1.9,1.7-2.4c.9-.5,1.9-.7,2.9-.5s1.9,.9,2.4,1.7c.5,.9,.7,1.9,.5,2.9s-.9,1.9-1.7,2.4c-.6,.4-1.3,.6-2,.6Zm0-4.7c-.2,0-.3,0-.5,.1s-.3,.3-.4,.6c-.1,.2,0,.5,.1,.7s.3,.3,.6,.4c.2,.1,.5,0,.7-.1s.3-.3,.4-.6c.1-.2,0-.5-.1-.7s-.3-.3-.6-.4h-.2Z"/><path class="cls-1" d="M25.9,54.48c-.3,0-.6-.1-.8-.3L3.1,39.38c-.7-.5-.9-1.4-.4-2.1,.5-.7,1.4-.9,2.1-.4l20.7,14L50.1,13.48c.4-.7,1.3-.9,2-.5l25.9,15.4L105.3,2.68c.6-.6,1.6-.5,2.1,.1,.6,.6,.5,1.6-.1,2.1l-28,26.5c-.5,.5-1.2,.5-1.8,.2l-25.6-15.3L27.2,53.78c-.2,.3-.6,.6-1,.6-.1,.1-.2,.1-.3,.1Z"/></g></g></g></svg>