<?xml version="1.0" encoding="UTF-8"?><svg id="Layer_2" xmlns="http://www.w3.org/2000/svg" viewBox="0 0 146 123.2"><defs><style>.cls-1{fill:#fff;}</style></defs><g id="Layer_1-2"><g><g><path class="cls-1" d="M35.6,52.4c-.8,0-1.5-.7-1.5-1.5V14.7c0-8.1,6.6-14.7,14.7-14.7h48.4c8.1,0,14.7,6.6,14.7,14.7v2c0,.8-.7,1.5-1.5,1.5s-1.5-.7-1.5-1.5v-2c0-6.4-5.2-11.7-11.7-11.7H48.8c-6.4,0-11.7,5.2-11.7,11.7V50.9c0,.9-.7,1.5-1.5,1.5Z"/><path class="cls-1" d="M97.2,123.2H48.8c-8.1,0-14.7-6.6-14.7-14.7v-11.8c0-.8,.7-1.5,1.5-1.5s1.5,.7,1.5,1.5v11.8c0,6.4,5.2,11.7,11.7,11.7h48.4c6.4,0,11.7-5.2,11.7-11.7v-11.8c0-.8,.7-1.5,1.5-1.5s1.5,.7,1.5,1.5v11.8c0,8.1-6.6,14.7-14.7,14.7Z"/><path class="cls-1" d="M76.9,112h-7.8c-.8,0-1.5-.7-1.5-1.5s.7-1.5,1.5-1.5h7.8c.8,0,1.5,.7,1.5,1.5,0,.9-.7,1.5-1.5,1.5Z"/><path class="cls-1" d="M81.3,14.2h-16.6c-.8,0-1.5-.7-1.5-1.5s.7-1.5,1.5-1.5h16.5c.8,0,1.5,.7,1.5,1.5,.1,.8-.6,1.5-1.4,1.5Z"/></g><g><path class="cls-1" d="M129.7,87.2h-25.6c-.3,0-.7-.1-.9-.3-.4-.3-.6-.7-.6-1.2V39.6h-22.7v46.1c0,.8-.7,1.5-1.5,1.5h-25.6c-.8,0-1.5-.7-1.5-1.5v-22.3H28.6v22.3c0,.8-.7,1.5-1.5,1.5H1.5c-.8,0-1.5-.7-1.5-1.5s.7-1.5,1.5-1.5H25.6v-22.3c0-.8,.7-1.5,1.5-1.5h25.6c.8,0,1.5,.7,1.5,1.5v22.3h22.6V38.1c0-.8,.7-1.5,1.5-1.5h25.6c.8,0,1.5,.7,1.5,1.5v46.1h22.6V14.2c0-.8,.7-1.5,1.5-1.5s1.5,.7,1.5,1.5V85.7c.2,.9-.5,1.5-1.3,1.5Z"/><path class="cls-1" d="M114.9,28.8c-.4,0-.8-.2-1.1-.5-.5-.6-.5-1.6,.1-2.1l14.8-13.1c.6-.5,1.4-.5,2,0l14.8,13.1c.6,.5,.7,1.5,.1,2.1-.5,.6-1.5,.7-2.1,.1l-13.8-12.2-13.8,12.2c-.3,.3-.6,.4-1,.4Z"/></g></g></g></svg>