<?xml version="1.0" encoding="UTF-8"?><svg id="Layer_2" xmlns="http://www.w3.org/2000/svg" viewBox="0 0 131.24 129.9"><defs><style>.cls-1{fill:#fff;}</style></defs><g id="Layer_1-2"><g><path class="cls-1" d="M47.24,98.1c-7,0-13.1-4.7-15-11.5-1.1-4-.5-8.2,1.5-11.8,2.1-3.6,5.4-6.2,9.4-7.2,1.3-.4,2.7-.5,4-.5,7,0,13.1,4.7,15,11.5,1.1,4,.5,8.2-1.5,11.8-2.1,3.6-5.4,6.2-9.4,7.2-1.3,.3-2.6,.5-4,.5Zm0-27.9c-1.1,0-2.2,.1-3.2,.4-6.6,1.8-10.5,8.6-8.7,15.2,1.5,5.4,6.4,9.2,12,9.2,1.1,0,2.2-.1,3.2-.4,6.6-1.8,10.5-8.6,8.7-15.2-1.4-5.4-6.4-9.2-12-9.2Z"/><path class="cls-1" d="M52.34,129.9c-3,0-5.6-2-6.3-4.9l-1.7-6.3-.9-.1c-.5-.1-1.1-.1-1.7-.2l-.8-.1-3.3,5.7c-.9,1.5-2.3,2.6-4,3.1-.6,.2-1.1,.2-1.7,.2-1.1,0-2.3-.3-3.3-.9l-9.9-5.7c-1.5-.9-2.6-2.3-3.1-4s-.2-3.5,.6-5l3.3-5.7-.5-.7c-.3-.4-.7-.9-1-1.3l-.5-.7-6.3,1.7c-.6,.2-1.1,.2-1.7,.2-3,0-5.6-2-6.3-4.9L.24,89.2c-.5-1.7-.2-3.5,.6-5,.9-1.5,2.3-2.6,4-3.1l6.3-1.7,.1-.9c.1-.5,.1-1.1,.2-1.6l.1-.8-5.7-3.3c-1.5-.9-2.6-2.3-3.1-4s-.2-3.5,.6-5l5.7-9.9c1.2-2,3.4-3.3,5.7-3.3,1.1,0,2.3,.3,3.3,.9l5.7,3.3,.7-.5c.4-.4,.9-.7,1.3-1l.7-.5-1.7-6.3c-.5-1.7-.2-3.5,.6-5,.9-1.5,2.3-2.6,4-3.1l11-3c.6-.2,1.1-.2,1.7-.2,1.1,0,2.3,.3,3.3,.9,1.5,.9,2.6,2.3,3.1,4l1.7,6.3,.9,.1c.6,.1,1.1,.1,1.7,.2l.8,.1,3.2-5.6c.9-1.5,2.3-2.6,4-3.1,.6-.2,1.1-.2,1.7-.2,1.1,0,2.3,.3,3.3,.9l9.9,5.7c1.5,.9,2.6,2.3,3.1,4s.2,3.5-.6,5l-3.2,5.6,.5,.7c.4,.4,.7,.9,1,1.4l.5,.7,6.3-1.7c.5-.1,1.1-.2,1.7-.2,.9,0,1.7,.2,2.6,.5l.8,.3,16.8-16.8-15.9-15.9-8.7,8.7c-.3,.3-.7,.5-1.1,.5s-.8-.2-1.1-.5c-.3-.2-.4-.6-.4-1s.2-.8,.5-1.1l8.7-8.7-8-8c-.4-.4-.6-1.1-.4-1.6,.2-.6,.7-1,1.3-1l40.6-4.3h.2c.4,0,.8,.2,1.1,.5,.3,.3,.5,.8,.4,1.3l-5.2,39.7c-.1,.6-.5,1.1-1,1.3-.2,.1-.3,.1-.5,.1-.4,0-.8-.2-1.1-.5l-7.2-7.2-16.8,16.6,.4,.8c.2,.4,.3,.8,.4,1.1l3,11.1c.5,1.7,.2,3.5-.7,5-.9,1.5-2.3,2.6-4,3.1l-6.3,1.7-.1,.9c-.1,.6-.1,1.1-.2,1.7l-.1,.7,5.6,3.2c3.1,1.8,4.2,5.8,2.4,9l-5.7,9.9c-1.2,2-3.4,3.3-5.7,3.3-1.1,0-2.3-.3-3.3-.9l-5.6-3.2-.7,.5c-.4,.4-.9,.7-1.3,1l-.7,.5,1.7,6.3c.5,1.7,.2,3.5-.6,5-.9,1.5-2.3,2.6-4,3.1l-11,3c-.6,.1-1.2,.2-1.7,.2Zm-3.4-5.7c.4,1.5,1.8,2.6,3.4,2.6,.3,0,.6,0,.9-.1l11-3c.9-.2,1.6-.8,2.1-1.6,.5-.8,.6-1.7,.3-2.6l-2-7.3v-.9s0-.1,.1-.1q0-.1,.1-.1l.1-.1,.1-.1,.1-.1c.1,0,.1-.1,.1-.1l.1-.1c1.4-.9,2.8-2,4-3.1,0,0,.1,0,.1-.1l.1-.1,.1-.1s.1,0,.1-.1c0,0,.1,0,.2-.1h1q.1,0,.2,.1l.1,.1,6.5,3.8c.5,.3,1.1,.5,1.7,.5,1.2,0,2.4-.7,3-1.7l5.7-9.9c.5-.8,.6-1.7,.3-2.6-.2-.9-.8-1.6-1.6-2.1l-6.5-3.7s-.2-.1-.2-.2l-.1-.1-.1-.1-.1-.1-.1-.1-.1-.1v-1c.4-1.7,.6-3.4,.6-5v-.6c0-.1,.1-.1,.1-.2,.1-.1,.1-.2,.2-.2h0c.1-.1,.3-.2,.4-.3,.1,0,.2-.1,.3-.1h.1l7.2-2c1.8-.5,2.9-2.4,2.4-4.3l-3-11.1c-.1-.4-.3-.8-.5-1.1l-.1-.2-.2-.1c-.1-.1-.2-.1-.2-.2l-.2-.3-.2-.1-.1-.1h-.1c-.5-.3-1.1-.5-1.7-.5-.3,0-.6,0-.9,.1l-7.3,2h-.8c-.1,0-.2-.1-.2-.1h-.1c-.1,0-.2-.1-.3-.2h0l-.1-.1-.2-.2-.1-.1h0c-.9-1.4-2-2.8-3.1-4,0,0-.1-.2-.2-.2l-.1-.1s0-.1-.1-.1c0,0,0-.1-.1-.1v-.9c0-.1,.1-.2,.1-.2v-.1l3.7-6.5c.5-.8,.6-1.7,.3-2.6-.2-.9-.8-1.6-1.6-2.1l-9.9-5.7c-.5-.3-1.1-.5-1.7-.5-.3,0-.6,0-.9,.1-.9,.2-1.6,.8-2.1,1.6l-3.8,6.5v.1c-.1,.1-.1,.2-.2,.2l-.1,.1q-.1,.1-.2,.1l-.1,.1c-.1,0-.1,.1-.1,.1h-.1c-.1,0-.1,.1-.2,.1h-.9c-1.6-.3-3.3-.6-5-.7h-.4s-.2-.1-.3-.1-.1-.1-.2-.1l-.1-.1-.1-.1-.1-.1-.1-.1-.1-.1s0-.1-.1-.1q0-.1-.1-.2v-.1l-2-7.3c-.2-.9-.8-1.6-1.6-2.1-.5-.3-1.1-.5-1.7-.5-.3,0-.6,0-.9,.1l-11,3c-.9,.2-1.6,.8-2.1,1.6s-.6,1.7-.3,2.6l2,7.3v.9s0,.1-.1,.1c0,0,0,.1-.1,.1,0,.1-.1,.1-.1,.1l-.1,.1-.1,.1c-.1,0-.1,.1-.1,.1l-.1,.1c-1.4,.9-2.7,1.9-4,3.1,0,0-.2,.1-.2,.2,0,0-.1,0-.1,.1,0,0-.1,0-.1,.1,0,0-.1,0-.1,.1h-.9q-.1,0-.2-.1t-.1-.1l-.1-.1-6.6-3.8c-.5-.3-1.1-.5-1.7-.5-1.2,0-2.4,.7-3,1.7l-5.7,9.9c-.5,.8-.6,1.7-.3,2.6,.2,.9,.8,1.6,1.6,2.1l6.6,3.8s.1,0,.1,.1c.1,0,.1,.1,.2,.1l.1,.1,.1,.1,.1,.1,.1,.1,.1,.1s0,.1,.1,.1v.8c-.4,1.7-.6,3.3-.6,5v.6s0,.1-.1,.1c0,0,0,.1-.1,.1l-.1,.1-.1,.1-.1,.1-.1,.1-.1,.1s-.1,0-.1,.1q-.1,0-.2,.1h-.1l-7.3,2c-1.8,.5-2.9,2.4-2.4,4.3l3,11.1c.4,1.5,1.8,2.6,3.4,2.6,.3,0,.6,0,.9-.1l7.3-2h1.1s.1,0,.1,.1c.1,0,.1,.1,.1,.1,0,0,.1,0,.1,.1,.1,0,.1,.1,.1,.1l.1,.1,.1,.1,.1,.1c.9,1.4,1.9,2.7,3,4l.1,.1,.1,.1,.1,.1s0,.1,.1,.1q0,.1,.1,.2v.9q0,.1-.1,.2l-.1,.1-3.8,6.6c-.5,.8-.6,1.7-.3,2.6,.2,.9,.8,1.6,1.6,2.1l9.9,5.7c.5,.3,1.1,.5,1.7,.5,.3,0,.6,0,.9-.1,.9-.2,1.6-.8,2.1-1.6l3.8-6.6s0-.1,.1-.1q.1-.1,.1-.2l.1-.1,.1-.1,.1-.1c.1,0,.1-.1,.1-.1,0,0,.1,0,.1-.1,0,0,.1,0,.1-.1h.9c1.7,.4,3.4,.6,5,.6h.4q.1,0,.2,.1,.1,0,.1,.1s.1,0,.1,.1c0,0,.1,0,.1,.1l.1,.1,.1,.1c0,.1,.1,.1,.1,.1l.1,.1s0,.1,.1,.1q0,.1,.1,.2v.1l2.2,7.3ZM114.44,48.9l4.5-34.7-35.4,3.8,24.7,24.7,6.2,6.2Z"/><path class="cls-1" d="M6.04,35.8c-.4,0-.8-.2-1.1-.5-.3-.3-.5-.7-.5-1.1s.2-.8,.5-1.1L26.74,11.3c.3-.3,.7-.5,1.1-.5s.8,.2,1.1,.5c.3,.3,.5,.7,.5,1.1s-.2,.8-.5,1.1L7.14,35.3c-.3,.3-.6,.5-1.1,.5Z"/><path class="cls-1" d="M95.94,125.6c-.4,0-.8-.2-1.1-.5-.3-.3-.5-.7-.5-1.1s.2-.8,.5-1.1l21.8-21.8c.3-.3,.7-.5,1.1-.5s.8,.2,1.1,.5c.3,.3,.5,.7,.5,1.1s-.2,.8-.5,1.1l-21.9,21.8c-.2,.3-.6,.5-1,.5Z"/><path class="cls-1" d="M41.74,24.8c-.4,0-.8-.2-1.1-.5s-.5-.7-.5-1.1,.2-.8,.5-1.1L59.84,3h-11c-.9,0-1.5-.7-1.5-1.5,0-.9,.7-1.5,1.5-1.5h14.7c.1,0,.2,0,.4,.1s.4,.1,.4,.2l.1,.1,.2,.2,.1,.1c0,.1,.1,.1,.1,.2v.2l.2,.2V15.5c0,.9-.7,1.5-1.5,1.5-.9,0-1.5-.7-1.5-1.5V5.5l-19.2,18.9c-.3,.3-.7,.4-1.1,.4Z"/><path class="cls-1" d="M107.84,92.1c-.4,0-.8-.2-1.1-.5-.3-.3-.5-.7-.5-1.1s.2-.8,.5-1.1l19.2-19.1h-8.9c-.9,0-1.5-.7-1.5-1.5s.7-1.5,1.5-1.5h12.7c.2,0,.3,0,.4,.1l.2,.1h.1c.1,0,.1,.1,.2,.1,.2,.1,.3,.2,.3,.3v.1c.1,.1,.1,.2,.2,.3,.1,.3,.1,.4,.1,.5v12.2c0,.9-.7,1.5-1.5,1.5-.9,0-1.5-.7-1.5-1.5v-8.5l-19.3,19.2c-.3,.3-.7,.4-1.1,.4Z"/></g></g></svg>