<?xml version="1.0" encoding="utf-8"?>
<!-- Generator: Adobe Illustrator 26.3.1, SVG Export Plug-In . SVG Version: 6.00 Build 0)  -->
<svg version="1.1" id="Layer_1" xmlns="http://www.w3.org/2000/svg" xmlns:xlink="http://www.w3.org/1999/xlink" x="0px" y="0px"
	 viewBox="0 0 112.2 107.9" style="enable-background:new 0 0 112.2 107.9;" xml:space="preserve">
<style type="text/css">
	.st0{fill:#44535E;}
</style>
<g>
	<g>
		<g>
			<g>
				<path class="st0" d="M98.1,107.9h-84C6.3,107.9,0,101.6,0,93.8v-70C0,16.1,6.3,9.8,14.1,9.8h1.6c0.8,0,1.5,0.7,1.5,1.5
					s-0.7,1.5-1.5,1.5h-1.6C8,12.8,3,17.7,3,23.8v70c0,6.1,5,11.1,11.1,11.1h84c6.1,0,11.1-5,11.1-11.1v-70c0-6.1-5-11.1-11.1-11.1
					h-3.9c-0.8,0-1.5-0.7-1.5-1.5s0.7-1.5,1.5-1.5h3.9c7.8,0,14.1,6.3,14.1,14.1v70C112.2,101.6,105.9,107.9,98.1,107.9z"/>
			</g>
		</g>
		<g>
			<g>
				<path class="st0" d="M63.2,12.8H46.7c-0.8,0-1.5-0.7-1.5-1.5s0.7-1.5,1.5-1.5h16.5c0.8,0,1.5,0.7,1.5,1.5S64,12.8,63.2,12.8z"/>
			</g>
		</g>
		<g>
			<g>
				<path class="st0" d="M100.4,36.6H1.5c-0.8,0-1.5-0.7-1.5-1.5c0-0.8,0.7-1.5,1.5-1.5h98.9c0.8,0,1.5,0.7,1.5,1.5
					C101.9,35.9,101.3,36.6,100.4,36.6z"/>
			</g>
		</g>
	</g>
	<g>
		<g>
			<g>
				<path class="st0" d="M32.2,22.5h-2c-3,0-5.5-2.5-5.5-5.5V5.5c0-3,2.5-5.5,5.5-5.5h2c3,0,5.5,2.5,5.5,5.5V17
					C37.7,20,35.2,22.5,32.2,22.5z M30.2,3c-1.4,0-2.5,1.1-2.5,2.5V17c0,1.4,1.1,2.5,2.5,2.5h2c1.4,0,2.5-1.1,2.5-2.5V5.5
					c0-1.4-1.1-2.5-2.5-2.5H30.2z"/>
			</g>
		</g>
		<g>
			<g>
				<path class="st0" d="M79.7,22.5h-2c-3,0-5.5-2.5-5.5-5.5V5.5c0-3,2.5-5.5,5.5-5.5h2c3,0,5.5,2.5,5.5,5.5V17
					C85.2,20,82.7,22.5,79.7,22.5z M77.7,3c-1.4,0-2.5,1.1-2.5,2.5V17c0,1.4,1.1,2.5,2.5,2.5h2c1.4,0,2.5-1.1,2.5-2.5V5.5
					C82.2,4.1,81,3,79.7,3H77.7z"/>
			</g>
		</g>
	</g>
	<g>
		<path class="st0" d="M56.5,91V53.3L49,56.2c-0.3,0.1-0.8,0.3-1.3,0.3c-1,0-1.9-0.8-1.9-2c0-0.6,0.2-1.4,1.3-1.8l10.2-4
			c0.4-0.1,0.8-0.4,1.5-0.4c1.2,0,2.1,0.9,2.1,2.2V91c0,1.3-0.9,2.2-2.1,2.2C57.5,93.2,56.5,92.3,56.5,91z"/>
	</g>
</g>
</svg>
