<?xml version="1.0" encoding="utf-8"?>
<!-- Generator: Adobe Illustrator 26.3.1, SVG Export Plug-In . SVG Version: 6.00 Build 0)  -->
<svg version="1.1" id="Layer_1" xmlns="http://www.w3.org/2000/svg" xmlns:xlink="http://www.w3.org/1999/xlink" x="0px" y="0px"
	 viewBox="0 0 139.4 104.9" style="enable-background:new 0 0 139.4 104.9;" xml:space="preserve">
<style type="text/css">
	.st0{fill:#44535E;}
</style>
<g>
	<g>
		<path class="st0" d="M117,102c-0.4,0-0.8-0.2-1.1-0.4l-15.8-15.8l-0.6,0.6c-6.5,5.7-14.9,8.9-23.6,8.9C56.1,95.2,40,79.1,40,59.4
			s16.1-35.8,35.8-35.8s35.8,16.1,35.8,35.8c0,8.7-3.2,17-8.9,23.6l-0.6,0.6L118,99.5c0.6,0.6,0.6,1.5,0,2.1
			C117.8,101.9,117.4,102,117,102z M75.8,26.6C57.8,26.6,43,41.3,43,59.4s14.7,32.8,32.8,32.8c8.7,0,16.9-3.4,23.1-9.5l0,0l0.1-0.1
			l0.1-0.1c6.1-6.2,9.5-14.4,9.5-23.1C108.6,41.3,93.9,26.6,75.8,26.6z"/>
	</g>
	<g>
		<path class="st0" d="M75.3,85.4c-0.1,0-0.2,0-0.3,0l-0.1,0c-0.1,0-0.1,0-0.2-0.1l-0.1-0.1c-0.1,0-0.1-0.1-0.2-0.1l-0.2-0.2
			L61.9,72.2L48.1,58.9c-0.6-0.6-0.6-1.5,0-2.1c0.3-0.3,0.7-0.5,1.1-0.5c0.4,0,0.8,0.2,1,0.4L64,70l0.1,0.1l0,0l11.3,11.6l3.6-3.4
			l0.1-0.1l5.6-5.2l17.1-16.9c0.3-0.3,0.7-0.4,1.1-0.4c0.4,0,0.8,0.2,1.1,0.4c0.6,0.6,0.6,1.5,0,2.1l-17.1,17l-5.6,5.3L81,80.6
			L76.3,85l-0.2,0.1l-0.1,0.1l-0.2,0.1c0,0-0.1,0-0.1,0l-0.2,0C75.5,85.3,75.4,85.4,75.3,85.4z"/>
	</g>
	<g>
		<path class="st0" d="M77.3,53.1c-0.4,0-0.8-0.1-1.1-0.4L61.2,38.1c-0.3-0.3-0.5-0.7-0.5-1.1c0-0.4,0.1-0.8,0.4-1.1
			c0.3-0.3,0.7-0.5,1.1-0.5c0.4,0,0.8,0.2,1,0.4l14,13.5l12.6-12.9c0.3-0.3,0.7-0.5,1.1-0.5c0.4,0,0.8,0.2,1.1,0.4
			c0.3,0.3,0.5,0.7,0.5,1.1c0,0.4-0.1,0.8-0.4,1.1l-13.6,14C78.1,52.9,77.7,53.1,77.3,53.1z"/>
	</g>
	<g>
		<path class="st0" d="M135.1,53.1c-0.4,0-0.8-0.2-1.1-0.4l-12.3-12.2l-5.8,6c-0.3,0.3-0.7,0.5-1.1,0.5c-0.4,0-0.8-0.2-1.1-0.4
			c-0.6-0.6-0.6-1.5,0-2.1l6.8-7.1l0.1-0.1c0.2-0.2,0.6-0.4,1-0.4c0.3,0,0.6,0.1,0.8,0.2l0,0c0,0,0.1,0.1,0.1,0.1l0,0l0,0l0.1,0.1
			l10.9,10.9l2.6-42l-42,5l11.9,10.5l0,0l0.1,0.1c0.1,0.1,0.1,0.1,0.2,0.2c0.1,0.1,0.1,0.2,0.1,0.3c0.1,0.1,0.1,0.2,0.1,0.3l0,0.1
			c0,0.1,0,0.1,0,0.2l0,0.1c0,0.1,0,0.1,0,0.2c0,0-0.1,0.2-0.1,0.3c0,0,0,0.1-0.1,0.1l-0.1,0.1c0,0.1-0.1,0.1-0.1,0.2l-0.1,0.1
			l-0.1,0.1l-3.1,3.2c-0.3,0.3-0.7,0.5-1.1,0.5c-0.4,0-0.8-0.2-1.1-0.4c-0.3-0.3-0.5-0.7-0.5-1.1c0-0.4,0.1-0.8,0.4-1.1l2.1-2.1
			L89.9,11.1c-0.4-0.4-0.6-1-0.4-1.6c0.2-0.6,0.7-1,1.3-1.1l47.2-5.6c0.1,0,0.1,0,0.2,0c0.4,0,0.8,0.1,1,0.4
			c0.3,0.3,0.5,0.7,0.5,1.2l-3,47.2c0,0.6-0.4,1.1-1,1.3C135.5,53,135.3,53.1,135.1,53.1z"/>
	</g>
	<g>
		<path class="st0" d="M17.3,66.9c-0.4,0-0.8-0.2-1.1-0.4l-16-16.2c-0.6-0.6-0.6-1.5,0-2.1l35.4-36.3l0.2-0.1c0,0,0.1-0.1,0.1-0.2
			c0.3-0.2,0.6-0.4,1-0.4c0.4,0,0.8,0.2,1.1,0.4l6.3,6.2l7.3,7.1c0.3,0.3,0.5,0.7,0.5,1.1c0,0.4-0.1,0.8-0.4,1.1
			c-0.3,0.3-0.7,0.5-1.1,0.5c-0.4,0-0.8-0.2-1.1-0.4l-7.9-7.7L37,14.8L3.4,49.2l13.8,14l17.4-19.3c0.3-0.3,0.7-0.5,1.1-0.5
			c0.4,0,0.7,0.1,1,0.4c0.3,0.3,0.5,0.6,0.5,1s-0.1,0.8-0.4,1.1L18.4,66.4C18.1,66.7,17.7,66.9,17.3,66.9L17.3,66.9z"/>
	</g>
</g>
</svg>
