<?xml version="1.0" encoding="UTF-8"?><svg id="Layer_2" xmlns="http://www.w3.org/2000/svg" viewBox="0 0 124.52 112.5"><defs><style>.cls-1{fill:#fff;}</style></defs><g id="Layer_1-2"><g><path class="cls-1" d="M85.6,68.8c-.4,0-.8-.1-1.1-.4-.6-.6-.6-1.5,0-2.1l26.7-26.7c.6-.6,1.6-.6,2.1,0l7.7,7.7-3.5-40.5-40.4-3.5,7.7,7.7c.3,.3,.4,.7,.4,1.1s-.2,.8-.4,1.1l-5.7,5.7c-.6,.6-1.5,.6-2.1,0s-.6-1.5,0-2.1l4.6-4.6-9.5-9.5c-.4-.4-.6-1.1-.3-1.7,.3-.7,.9-1,1.5-1l45.9,3.9c.7,.1,1.3,.6,1.4,1.4l3.9,45.8c.1,.6-.3,1.2-.9,1.5s-1.2,.1-1.7-.3l-9.5-9.5-25.7,25.6c-.3,.3-.7,.4-1.1,.4Z"/><g><path class="cls-1" d="M48.8,54.7c-12.9,0-23.4-10.5-23.4-23.4S35.9,7.9,48.8,7.9s23.4,10.5,23.4,23.4-10.4,23.4-23.4,23.4Zm0-43.8c-11.3,0-20.4,9.2-20.4,20.4s9.2,20.4,20.4,20.4,20.4-9.2,20.4-20.4-9.1-20.4-20.4-20.4Z"/><path class="cls-1" d="M48.8,112.5C21.5,112.5,0,103.1,0,91.1s21.5-21.4,48.8-21.4,48.8,9.4,48.8,21.4-21.4,21.4-48.8,21.4Zm0-39.8c-24.8,0-45.8,8.4-45.8,18.4s21,18.4,45.8,18.4,45.8-8.4,45.8-18.4c.1-10-20.9-18.4-45.8-18.4Z"/></g></g></g></svg>