<?xml version="1.0" encoding="utf-8"?>
<!-- Generator: Adobe Illustrator 26.3.1, SVG Export Plug-In . SVG Version: 6.00 Build 0)  -->
<svg version="1.1" id="Layer_1" xmlns="http://www.w3.org/2000/svg" xmlns:xlink="http://www.w3.org/1999/xlink" x="0px" y="0px"
	 viewBox="0 0 128.4 125.1" style="enable-background:new 0 0 128.4 125.1;" xml:space="preserve">
<style type="text/css">
	.st0{fill:#44535E;}
</style>
<g>
	<g>
		<g>
			<path class="st0" d="M24,70.3c-6.8,0-12.3-5.5-12.3-12.2S17.2,45.8,24,45.8c6.8,0,12.2,5.5,12.2,12.2S30.7,70.3,24,70.3z
				 M24,48.8c-5.1,0-9.3,4.1-9.3,9.2s4.1,9.2,9.3,9.2c5.1,0,9.2-4.1,9.2-9.2S29.1,48.8,24,48.8z"/>
		</g>
		<g>
			<path class="st0" d="M36,125.1c-0.8,0-1.5-0.7-1.5-1.5V88.5c0-0.4,0.2-0.9,0.5-1.2l13-10.7l13.3-10.8c0.8-0.7,1.3-1.6,1.3-2.7
				c0-0.8-0.3-1.6-0.8-2.2c-1.2-1.5-3.4-1.7-4.8-0.5L34.2,79c-0.3,0.2-0.6,0.3-0.9,0.3H12.2c-5.1,0-9.2,4.1-9.2,9.2v22.1
				c0,0,0,0.1,0,0.1c0.1,1.8,1.6,3.3,3.4,3.3c1.9,0,3.4-1.5,3.4-3.4V96.9c0-0.8,0.7-1.5,1.5-1.5c0.8,0,1.5,0.7,1.5,1.5v26.7
				c0,0.8-0.7,1.5-1.5,1.5c-0.8,0-1.5-0.7-1.5-1.5V116c-1,0.6-2.2,1-3.4,1c-3.6,0-6.4-2.9-6.4-6.4c0,0,0-0.1,0-0.1V88.5
				c0-6.7,5.5-12.2,12.2-12.2h20.5l22.4-18.2c2.8-2.2,6.8-1.8,9.1,0.9c0.9,1.2,1.4,2.6,1.4,4.1c0,2-0.9,3.8-2.4,5L49.9,79L37.5,89.2
				v34.4C37.5,124.4,36.8,125.1,36,125.1z"/>
		</g>
	</g>
	<g>
		<g>
			<path class="st0" d="M104.4,70.3c-6.8,0-12.2-5.5-12.2-12.2s5.5-12.2,12.2-12.2c6.8,0,12.2,5.5,12.2,12.2S111.2,70.3,104.4,70.3z
				 M104.4,48.8c-5.1,0-9.2,4.1-9.2,9.2s4.1,9.2,9.2,9.2c5.1,0,9.2-4.1,9.2-9.2S109.5,48.8,104.4,48.8z"/>
		</g>
		<g>
			<path class="st0" d="M117,125.1c-0.8,0-1.5-0.7-1.5-1.5v-13c0-0.8,0.7-1.5,1.5-1.5c0.8,0,1.5,0.7,1.5,1.5v13
				C118.5,124.4,117.8,125.1,117,125.1z"/>
		</g>
		<g>
			<path class="st0" d="M121.9,117c-3.5,0-6.4-2.9-6.4-6.4V96.9c0-0.8,0.7-1.5,1.5-1.5c0.8,0,1.5,0.7,1.5,1.5v13.7
				c0,1.9,1.5,3.4,3.4,3.4c1.9,0,3.4-1.5,3.4-3.4V88.5c0-5.1-4.1-9.2-9.2-9.2H95.1c-0.3,0-0.7-0.1-0.9-0.3L74.5,63
				c-0.6-0.5-0.7-1.5-0.2-2.1c0.5-0.6,1.5-0.7,2.1-0.2l19.2,15.6h20.5c6.7,0,12.2,5.5,12.2,12.2v22.1
				C128.4,114.1,125.5,117,121.9,117z"/>
		</g>
		<g>
			<path class="st0" d="M92.4,125.1c-0.8,0-1.5-0.7-1.5-1.5V89.2L71.7,73.5C71,73,70.9,72,71.5,71.4c0.5-0.6,1.5-0.7,2.1-0.2
				l19.8,16.1c0.3,0.3,0.5,0.7,0.5,1.2v35.1C93.9,124.4,93.2,125.1,92.4,125.1z"/>
		</g>
	</g>
	<g>
		<g>
			<path class="st0" d="M64.2,21.3c-0.8,0-1.5-0.7-1.5-1.5V1.5c0-0.8,0.7-1.5,1.5-1.5c0.8,0,1.5,0.7,1.5,1.5v18.3
				C65.7,20.6,65,21.3,64.2,21.3z"/>
		</g>
		<g>
			<path class="st0" d="M46.1,27.3c-0.3,0-0.7-0.1-1-0.4l-13.8-12c-0.6-0.5-0.7-1.5-0.1-2.1c0.5-0.6,1.5-0.7,2.1-0.1l13.8,12
				c0.6,0.5,0.7,1.5,0.1,2.1C47,27.1,46.5,27.3,46.1,27.3z"/>
		</g>
		<g>
			<path class="st0" d="M82.2,27.3c-0.4,0-0.8-0.2-1.1-0.5c-0.5-0.6-0.5-1.6,0.1-2.1l13.8-12c0.6-0.5,1.6-0.5,2.1,0.1
				c0.5,0.6,0.5,1.6-0.1,2.1l-13.8,12C82.9,27.1,82.5,27.3,82.2,27.3z"/>
		</g>
	</g>
</g>
</svg>
