<?xml version="1.0" encoding="utf-8"?>
<!-- Generator: Adobe Illustrator 26.3.1, SVG Export Plug-In . SVG Version: 6.00 Build 0)  -->
<svg version="1.1" id="Layer_1" xmlns="http://www.w3.org/2000/svg" xmlns:xlink="http://www.w3.org/1999/xlink" x="0px" y="0px"
	 viewBox="0 0 131.5 125.1" style="enable-background:new 0 0 131.5 125.1;" xml:space="preserve">
<style type="text/css">
	.st0{fill:#44535E;}
</style>
<g>
	<g>
		<g>
			<path class="st0" d="M121.2,124.8c-0.8,0-1.5-0.7-1.5-1.5v-7.5l-32.4-0.1c-0.8,0-1.5-0.7-1.5-1.5v-6.2H52.6v6.2
				c0,0.8-0.7,1.5-1.5,1.5l-32.4,0.1v7.5c0,0.8-0.7,1.5-1.5,1.5c-0.8,0-1.5-0.7-1.5-1.5v-9c0-0.8,0.7-1.5,1.5-1.5l32.4-0.1v-6.2
				c0-0.8,0.7-1.5,1.5-1.5h36.3c0.8,0,1.5,0.7,1.5,1.5v6.2l32.4,0.1c0.8,0,1.5,0.7,1.5,1.5v9C122.7,124.2,122,124.8,121.2,124.8z"/>
		</g>
	</g>
	<g>
		<g>
			<path class="st0" d="M69.8,26.2c-7,0-12.8-5.8-12.8-13c0-7.2,5.7-13,12.8-13s12.8,5.8,12.8,13C82.6,20.4,76.9,26.2,69.8,26.2z
				 M69.8,3.2c-5.4,0-9.8,4.5-9.8,10c0,5.5,4.4,10,9.8,10s9.8-4.5,9.8-10C79.6,7.7,75.2,3.2,69.8,3.2z"/>
		</g>
		<g>
			<path class="st0" d="M76.7,98.2c-2.2,0-4.3-0.8-5.9-2.3c-0.4-0.3-0.7-0.7-1-1.1c-0.3,0.4-0.6,0.8-1,1.1c-1.6,1.5-3.7,2.3-5.9,2.3
				c-4,0-8.4-3-8.4-11.3l0-42.6L29.1,23.5c-1.5-1.2-2.4-3.1-2.4-5c0-1.5,0.5-2.9,1.4-4.1c1.1-1.4,2.6-2.2,4.3-2.4
				c1.7-0.2,3.4,0.3,4.7,1.4l22.5,17.7c0.7,0.5,0.8,1.5,0.2,2.1c-0.5,0.7-1.5,0.8-2.1,0.3L35.3,15.7c-0.7-0.6-1.6-0.9-2.5-0.8
				c-0.9,0.1-1.7,0.5-2.3,1.2c-0.5,0.6-0.8,1.4-0.8,2.2c0,1.1,0.5,2.1,1.3,2.7l26,21.3c0.3,0.3,0.5,0.7,0.5,1.2l0,43.3
				c0,5.3,2,8.3,5.4,8.3c1.4,0,2.8-0.5,3.8-1.5c1-0.9,1.5-2.2,1.5-3.5c0-0.8,0.7-1.5,1.5-1.5s1.5,0.7,1.5,1.5c0,1.3,0.6,2.5,1.5,3.5
				c1,1,2.4,1.5,3.8,1.5c3.4,0,5.4-3,5.4-8.3V43.6c0-0.5,0.2-0.9,0.5-1.2l26.1-21.3c0.8-0.7,1.3-1.6,1.3-2.7c0-0.8-0.3-1.6-0.8-2.2
				c-0.6-0.7-1.4-1.1-2.3-1.2c-0.9-0.1-1.8,0.2-2.5,0.7L81.9,33.5c-0.7,0.5-1.6,0.4-2.1-0.3c-0.5-0.7-0.4-1.6,0.2-2.1l22.5-17.7
				c1.3-1.1,3-1.6,4.7-1.4c1.7,0.2,3.2,1,4.3,2.4c0.9,1.2,1.4,2.6,1.4,4.1c0,2-0.9,3.8-2.3,5L85,44.3v42.6
				C85,95.3,80.7,98.2,76.7,98.2z"/>
		</g>
		<g>
			<path class="st0" d="M69.8,92.7c-0.8,0-1.5-0.7-1.5-1.5V68.5c0-0.8,0.7-1.5,1.5-1.5s1.5,0.7,1.5,1.5v22.7
				C71.3,92,70.6,92.7,69.8,92.7z"/>
		</g>
	</g>
	<g>
		<g>
			<path class="st0" d="M1.5,73c-0.5,0-1-0.3-1.3-0.7c-0.4-0.7-0.2-1.6,0.5-2.1l27.7-16.6c0.5-0.3,1.2-0.3,1.7,0.1l15.1,12.6
				c0.6,0.5,0.7,1.5,0.2,2.1c-0.5,0.6-1.5,0.7-2.1,0.2L29.1,56.8l-26.8,16C2,73,1.8,73,1.5,73z"/>
		</g>
		<g>
			<path class="st0" d="M94.9,69c-0.5,0-1.1-0.3-1.3-0.8c-0.4-0.7-0.1-1.6,0.6-2l34.3-18.1c0.7-0.4,1.6-0.1,2,0.6
				c0.4,0.7,0.1,1.6-0.6,2L95.6,68.8C95.4,69,95.2,69,94.9,69z"/>
		</g>
		<g>
			<path class="st0" d="M125.5,64.4c-0.2,0-0.3,0-0.5-0.1c-0.8-0.3-1.2-1.1-1-1.9l4-12.3l-12.3-3.7c-0.8-0.2-1.2-1.1-1-1.9
				c0.2-0.8,1.1-1.2,1.9-1l13.8,4.1c0.4,0.1,0.7,0.4,0.9,0.7c0.2,0.4,0.2,0.8,0.1,1.2l-4.5,13.8C126.7,64,126.1,64.4,125.5,64.4z"/>
		</g>
	</g>
</g>
</svg>
