<?xml version="1.0" encoding="utf-8"?>
<!-- Generator: Adobe Illustrator 26.3.1, SVG Export Plug-In . SVG Version: 6.00 Build 0)  -->
<svg version="1.1" id="Layer_1" xmlns="http://www.w3.org/2000/svg" xmlns:xlink="http://www.w3.org/1999/xlink" x="0px" y="0px"
	 viewBox="0 0 108.7 125.1" style="enable-background:new 0 0 108.7 125.1;" xml:space="preserve">
<style type="text/css">
	.st0{fill:#44535E;}
</style>
<g>
	<g>
		<g>
			<g>
				<g>
					<path class="st0" d="M26.5,30.5c-8.2,0-14.9-6.8-14.9-15.1c0-8.4,6.7-15.1,14.9-15.1c8.2,0,14.9,6.8,14.9,15.1
						C41.4,23.7,34.7,30.5,26.5,30.5z M26.5,3.2c-6.6,0-11.9,5.4-11.9,12.1c0,6.7,5.3,12.1,11.9,12.1c6.6,0,11.9-5.4,11.9-12.1
						C38.4,8.7,33,3.2,26.5,3.2z"/>
				</g>
			</g>
			<g>
				<g>
					<path class="st0" d="M30.7,124.8H17.8c-2.1,0-9-0.9-9-13.2V88.8H6.9c-3.8,0-6.9-3.4-6.9-7.5V52.2c0-8.5,5.8-14.9,13.6-14.9
						h19.5c0.8,0,1.5,0.7,1.5,1.5c0,0.8-0.7,1.5-1.5,1.5H13.6C7.5,40.3,3,45.4,3,52.2v29.1c0,2.5,1.8,4.5,3.9,4.5h3.4
						c0.8,0,1.5,0.7,1.5,1.5v24.4c0,6.5,2.2,10.2,6,10.2h12.9c3.8,0,6-3.7,6-10.2v-1.4c0-0.8,0.7-1.5,1.5-1.5c0.8,0,1.5,0.7,1.5,1.5
						v1.4C39.7,123.9,32.8,124.8,30.7,124.8z"/>
				</g>
			</g>
		</g>
		<g>
			<g>
				<g>
					<path class="st0" d="M86.7,30.5c-8.2,0-14.9-6.8-14.9-15.1c0-8.4,6.7-15.1,14.9-15.1c8.2,0,14.9,6.8,14.9,15.1
						C101.6,23.7,94.9,30.5,86.7,30.5z M86.7,3.2c-6.6,0-11.9,5.4-11.9,12.1c0,6.7,5.3,12.1,11.9,12.1c6.6,0,11.9-5.4,11.9-12.1
						C98.6,8.7,93.2,3.2,86.7,3.2z"/>
				</g>
			</g>
			<g>
				<g>
					<path class="st0" d="M90.9,124.8H78c-2.1,0-9-0.9-9-13.2V98c0-0.8,0.7-1.5,1.5-1.5c0.8,0,1.5,0.7,1.5,1.5v13.7
						c0,6.5,2.2,10.2,6,10.2h12.9c3.8,0,6-3.7,6-10.2V87.3c0-0.8,0.7-1.5,1.5-1.5h3.4c2.2,0,3.9-2,3.9-4.5V52.2
						c0-6.8-4.5-11.9-10.6-11.9H80c-0.8,0-1.5-0.7-1.5-1.5c0-0.8,0.7-1.5,1.5-1.5h15c7.7,0,13.6,6.4,13.6,14.9v29.1
						c0,4.2-3.1,7.5-6.9,7.5h-1.9v22.9C99.9,123.9,93,124.8,90.9,124.8z"/>
				</g>
			</g>
		</g>
	</g>
	<g>
		<path class="st0" d="M39.1,96.6c-0.4,0-0.8-0.2-1.1-0.4L20.4,78.2c-0.6-0.6-0.6-1.5,0-2.1L38,58.2c0.4-0.4,1.1-0.6,1.6-0.3
			c0.6,0.2,0.9,0.8,0.9,1.4v6.8h25c0.8,0,1.5,0.7,1.5,1.5v4.7L81,58L67,43.8v4.7c0,0.8-0.7,1.5-1.5,1.5H39.1c-0.8,0-1.5-0.7-1.5-1.5
			c0-0.8,0.7-1.5,1.5-1.5h25v-6.8c0-0.6,0.4-1.2,0.9-1.4c0.6-0.2,1.2-0.1,1.6,0.3L84.2,57c0.6,0.6,0.6,1.5,0,2.1L66.6,77
			c-0.4,0.4-1.1,0.6-1.6,0.3c-0.6-0.2-0.9-0.8-0.9-1.4v-6.8h-25c-0.8,0-1.5-0.7-1.5-1.5v-4.7l-14,14.2l14,14.2v-4.7
			c0-0.8,0.7-1.5,1.5-1.5h26.5c0.8,0,1.5,0.7,1.5,1.5s-0.7,1.5-1.5,1.5h-25v6.8c0,0.6-0.4,1.2-0.9,1.4
			C39.4,96.5,39.3,96.6,39.1,96.6z"/>
	</g>
</g>
</svg>
