<?xml version="1.0" encoding="UTF-8"?><svg id="Layer_2" xmlns="http://www.w3.org/2000/svg" viewBox="0 0 128.75 130.22"><defs><style>.cls-1{fill:#fff;}</style></defs><g id="Layer_1-2"><g><path class="cls-1" d="M29.52,130.22q-.1,0,0,0c-.6,0-1.1-.4-1.4-.9l-8-16.9-18.6,.5c-.5,0-1.1-.3-1.3-.7-.3-.5-.3-1.1,0-1.5l14.3-23.4c.4-.7,1.4-.9,2.1-.5s.9,1.4,.5,2.1l-12.8,21,16.9-.5c.6,0,1.1,.3,1.4,.9l7.2,15.3,11.5-18.8c.4-.7,1.4-.9,2.1-.5,.7,.4,.9,1.4,.5,2.1l-13,21.2c-.4,.3-.9,.6-1.4,.6Z"/><path class="cls-1" d="M99.23,130.22c-.5,0-1-.3-1.3-.7l-13-21.2c-.4-.7-.2-1.6,.5-2.1,.7-.4,1.6-.2,2.1,.5l11.5,18.8,7.2-15.3c.3-.5,.8-.9,1.4-.9l16.9,.5-12.9-21c-.4-.7-.2-1.6,.5-2.1,.7-.4,1.6-.2,2.1,.5l14.3,23.4c.3,.5,.3,1.1,0,1.5-.3,.5-.8,.8-1.3,.7l-18.7-.5-8,16.9c-.2,.6-.7,.9-1.3,1h0Z"/><g><path class="cls-1" d="M64.33,103.82c-.3,0-.5-.1-.8-.2l-11.3-6.7-13.1,.2h0c-.5,0-1-.3-1.3-.8l-6.4-11.5-11.5-6.5c-.5-.3-.8-.8-.8-1.3l.2-13.1-6.7-11.3c-.3-.5-.3-1.1,0-1.5l6.7-11.3-.2-13.1c0-.5,.3-1.1,.8-1.3l11.5-6.4,6.4-11.5c.3-.5,.8-.8,1.3-.8l13.1,.2L63.53,.22c.5-.3,1.1-.3,1.5,0l11.3,6.7,13.1-.2c.5,0,1.1,.3,1.3,.8l6.4,11.5,11.5,6.4c.5,.3,.8,.8,.8,1.3l-.2,13.1,6.7,11.3c.3,.5,.3,1.1,0,1.5l-6.7,11.3,.2,13.1c0,.5-.3,1.1-.8,1.3l-11.5,6.4-6.4,11.5c-.3,.5-.8,.8-1.3,.8l-13.1-.2-11.2,6.7c-.3,.2-.5,.3-.8,.3Zm-11.6-10c.3,0,.5,.1,.8,.2l10.8,6.5,10.9-6.5c.2-.1,.5-.2,.8-.2l12.7,.2,6.2-11c.1-.2,.3-.4,.6-.6l11-6.2-.2-12.7c0-.3,.1-.5,.2-.8l6.5-10.9-6.5-10.9c-.1-.2-.2-.5-.2-.8l.2-12.7-11-6.2c-.2-.1-.4-.3-.6-.6l-6.2-11-12.7,.2c-.3,0-.5-.1-.8-.2l-10.9-6.5-10.9,6.5c-.2,.1-.5,.2-.8,.2l-12.6-.1-6.2,11c-.1,.2-.3,.4-.6,.6l-11,6.2,.2,12.7c0,.3-.1,.5-.2,.8l-6.5,10.9,6.5,10.9c.1,.2,.2,.5,.2,.8l-.2,12.7,11,6.2c.2,.1,.4,.3,.6,.6l6.2,11,12.7-.3c-.1,0,0,0,0,0Z"/><path class="cls-1" d="M64.33,82.92c-17.1,0-31.1-13.9-31.1-31.1s13.9-31.1,31.1-31.1,31.1,13.9,31.1,31.1-14,31.1-31.1,31.1Zm0-59.1c-15.5,0-28.1,12.6-28.1,28.1s12.6,28.1,28.1,28.1,28.1-12.6,28.1-28.1-12.6-28.1-28.1-28.1Z"/></g><path class="cls-1" d="M60.83,61.82c-.4,0-.8-.1-1.1-.4l-8.2-8.2c-.6-.6-.6-1.5,0-2.1s1.5-.6,2.1,0l7.1,7.1,14.2-14.2c.6-.6,1.5-.6,2.1,0s.6,1.5,0,2.1l-15.2,15.3c-.3,.3-.6,.4-1,.4Z"/></g></g></svg>